<svg width="26.250001" height="291.25001" xmlns="http://www.w3.org/2000/svg" xmlns:xlink="http://www.w3.org/1999/xlink">
 <defs>
  <clipPath id="clipPath5851">
   <path fill="#000000" stroke-width="0.732343" id="path5853" d="m49.8125,31.83884c-3.25564,0.0909 -5.9597,1.08533 -7.8125,3.0625c-1.85281,1.97712 -2.65164,4.74531 -2.53125,8c0.12039,3.25469 1.15997,6.99107 2.96875,11.03125c3.61757,8.08035 10.38405,17.29707 19.4375,25.78125c9.05332,8.48356 18.67079,14.63275 26.96875,17.71875c4.14898,1.543 7.96309,2.3409 11.21875,2.25c3.25566,-0.091 5.9597,-1.0853 7.8125,-3.0625c1.85283,-1.9772 2.65165,-4.7453 2.53125,-8c-0.1204,-3.25471 -1.12869,-6.99108 -2.9375,-11.03125c-3.61762,-8.08034 -10.38404,-17.29712 -19.4375,-25.78125c-9.05337,-8.4838 -18.70209,-14.63285 -27,-17.71875c-4.14895,-1.54295 -7.96311,-2.34093 -11.21875,-2.25zm0.03125,0.75c3.1223,-0.0872 6.85078,0.66769 10.9375,2.1875c8.17343,3.03961 17.75715,9.13541 26.75,17.5625c8.99293,8.42742 15.68665,17.57212 19.25,25.53125c1.78168,3.97956 2.79078,7.65984 2.90625,10.78125c0.11547,3.12145 -0.65234,5.66385 -2.34375,7.46875c-1.69138,1.8049 -4.15893,2.7253 -7.28125,2.8125c-3.12232,0.087 -6.882,-0.6677 -10.96875,-2.1875c-8.1735,-3.0397 -17.72595,-9.13565 -26.71875,-17.5625c-8.99292,-8.42746 -15.71795,-17.57211 -19.28125,-25.53125c-1.78165,-3.97957 -2.75954,-7.65986 -2.875,-10.78125c-0.11546,-3.12139 0.62111,-5.66388 2.3125,-7.46875c1.69139,-1.80492 4.1902,-2.72529 7.3125,-2.8125z"/>
  </clipPath>
  <clipPath id="clipPath5827">
   <path fill="#000000" stroke-width="0.732343" id="path5829" d="m92.4375,31.83884c-3.25566,-0.0909 -7.06977,0.70705 -11.21875,2.25c-8.29797,3.08589 -17.94668,9.23495 -27,17.71875c-9.05345,8.48418 -15.78868,17.70088 -19.40625,25.78125c-1.80878,4.04018 -2.84836,7.77655 -2.96875,11.03125c-0.12039,3.2547 0.67844,6.0229 2.53125,8c1.85281,1.9772 4.55686,2.9716 7.8125,3.0625c3.25564,0.091 7.0698,-0.707 11.21875,-2.25c8.2979,-3.086 17.94664,-9.23515 27,-17.71875c9.05346,-8.48414 15.81988,-17.70092 19.4375,-25.78125c1.80881,-4.04017 2.8171,-7.77654 2.9375,-11.03125c0.1204,-3.25471 -0.67842,-6.02283 -2.53125,-8c-1.8528,-1.97715 -4.55684,-2.97157 -7.8125,-3.0625zm-0.03125,0.75c3.12232,0.0872 5.62112,1.00761 7.3125,2.8125c1.69142,1.80493 2.45922,4.34735 2.34375,7.46875c-0.11547,3.1214 -1.12457,6.80169 -2.90625,10.78125c-3.56335,7.95912 -10.25707,17.10382 -19.25,25.53125c-8.99284,8.42688 -18.57657,14.5228 -26.75,17.5625c-4.08672,1.5198 -7.8152,2.2747 -10.9375,2.1875c-3.1223,-0.087 -5.62111,-1.0076 -7.3125,-2.8125c-1.69139,-1.8049 -2.42796,-4.3474 -2.3125,-7.46875c0.11546,-3.1214 1.09335,-6.80167 2.875,-10.78125c3.5633,-7.95915 10.25708,-17.10379 19.25,-25.53125c8.9928,-8.42709 18.57651,-14.5229 26.75,-17.5625c4.08675,-1.5198 7.81518,-2.27471 10.9375,-2.1875z"/>
  </clipPath>
  <clipPath id="clipPath5835">
   <path fill="#000000" stroke-width="0.732343" id="path5837" d="m96.40625,35.74509c-3.25566,-0.0909 -7.06977,0.70705 -11.21875,2.25c-8.29797,3.08589 -17.94668,9.23494 -27,17.71875c-9.05345,8.48418 -15.78868,17.70089 -19.40625,25.78125c-1.80878,4.04018 -2.84836,7.77655 -2.96875,11.0312c-0.12039,3.2547 0.67844,6.0229 2.53125,8c1.85281,1.9772 4.55686,2.9717 7.8125,3.0626c3.25564,0.091 7.0698,-0.7071 11.21875,-2.25c8.2979,-3.086 17.94663,-9.2352 27,-17.7188c9.05346,-8.48415 15.81988,-17.70092 19.4375,-25.78125c1.80881,-4.04017 2.8171,-7.77654 2.9375,-11.03125c0.1204,-3.25471 -0.67842,-6.02283 -2.53125,-8c-1.8528,-1.97715 -4.55684,-2.97157 -7.8125,-3.0625zm-0.03125,0.75c3.12232,0.0872 5.62112,1.0076 7.3125,2.8125c1.69142,1.80493 2.45922,4.34735 2.34375,7.46875c-0.11547,3.1214 -1.12457,6.80169 -2.90625,10.78125c-3.56335,7.95912 -10.25706,17.10381 -19.25,25.53125c-8.99285,8.42685 -18.57657,14.52285 -26.75,17.56245c-4.08671,1.5199 -7.8152,2.2747 -10.9375,2.1876c-3.1223,-0.087 -5.62111,-1.0076 -7.3125,-2.8126c-1.69139,-1.8048 -2.42796,-4.3473 -2.3125,-7.4687c0.11546,-3.1214 1.09335,-6.80168 2.875,-10.78125c3.5633,-7.95915 10.25708,-17.10378 19.25,-25.53125c8.9928,-8.42709 18.57651,-14.5229 26.75,-17.5625c4.08675,-1.5198 7.81518,-2.27471 10.9375,-2.1875z"/>
  </clipPath>
  <clipPath id="clipPath5859">
   <path fill="#000000" stroke-width="0.732343" id="path5861" d="m45.84375,35.74509c-3.25564,0.0909 -5.95969,1.08533 -7.8125,3.0625c-1.85281,1.97712 -2.65164,4.74531 -2.53125,8c0.12039,3.25469 1.15997,6.99108 2.96875,11.03125c3.61757,8.08035 10.38406,17.29708 19.4375,25.78125c9.05332,8.4836 18.67079,14.6328 26.96875,17.7188c4.14898,1.5429 7.96309,2.3408 11.21875,2.25c3.25566,-0.091 5.99095,-1.0854 7.84375,-3.0626c1.85283,-1.9771 2.6204,-4.7452 2.5,-8c-0.1204,-3.25465 -1.12869,-6.99103 -2.9375,-11.0312c-3.61762,-8.08034 -10.38404,-17.29709 -19.4375,-25.78125c-9.05337,-8.4838 -18.7021,-14.63285 -27,-17.71875c-4.14895,-1.54295 -7.96311,-2.34094 -11.21875,-2.25zm0.03125,0.75c3.1223,-0.0872 6.85079,0.66769 10.9375,2.1875c8.17343,3.03961 17.75715,9.13542 26.75,17.5625c8.99294,8.42745 15.68665,17.57212 19.25,25.53125c1.78168,3.97957 2.79078,7.65985 2.90625,10.78125c0.11547,3.1214 -0.65234,5.6638 -2.34375,7.4687c-1.69138,1.805 -4.15893,2.7254 -7.28125,2.8126c-3.12232,0.087 -6.882,-0.6677 -10.96875,-2.1876c-8.17349,-3.0396 -17.72595,-9.1356 -26.71875,-17.56245c-8.99292,-8.42746 -15.71795,-17.57211 -19.28125,-25.53125c-1.78165,-3.97957 -2.75954,-7.65986 -2.875,-10.78125c-0.11546,-3.12139 0.62111,-5.66388 2.3125,-7.46875c1.69139,-1.80492 4.1902,-2.72529 7.3125,-2.8125z"/>
  </clipPath>
  <linearGradient id="linearGradient4745">
   <stop stop-color="#8ab3db" id="stop4747" offset="0"/>
   <stop stop-color="#8ab3db" stop-opacity="0" id="stop4749" offset="1"/>
  </linearGradient>
  <linearGradient y2="1.000573" x2="0.511739" y1="0.000802" x1="0.50352" id="linearGradient4751" xlink:href="#linearGradient4745"/>
 </defs>
 <metadata id="metadata7">image/svg+xml</metadata>
 <g>
  <title>background</title>
  <rect fill="none" id="canvas_background" height="402" width="582" y="-1" x="-1"/>
 </g>
 <g>
  <title>Layer 1</title>
  <rect fill="#5a7fb1" stroke-width="10" stroke-linejoin="round" stroke-miterlimit="4" id="rect4697-4" width="26.250004" height="291.25" x="0" y="0"/>
  <rect fill="url(#linearGradient4751)" stroke-width="10" stroke-linejoin="round" stroke-miterlimit="4" id="rect4697" width="26.250002" height="291.25" x="0" y="-0.000018"/>
  <text transform="rotate(-89.71720886230469 13.124999999999998,223.8046875) " stroke="null" xml:space="preserve" text-anchor="start" font-family="'AvantGarde Bk BT'" font-size="18.140507px" id="svg_1" y="229.806186" x="-21.13905" stroke-width="1px" fill="#ffffff">MillerOS</text>
  <text stroke="null" transform="rotate(-89.77391052246094 12.721413612365726,31.470508575439457) matrix(0.6050192713737489,0,0,1,5.262202966201613,-19.005213705738186) " xml:space="preserve" text-anchor="start" font-family="'AvantGarde Bk BT'" font-size="18.140507px" id="svg_2" y="56.606332" x="-35.640831" stroke-width="1px" fill="#ffffff">Epic Gaming</text>
  <ellipse id="svg_3" cy="267.806154" cx="6.924994" stroke-width="10" fill="url(#linearGradient4751)"/>
  <ellipse ry="10.399991" rx="10.599991" id="svg_4" cy="277.406146" cx="13.524988" stroke-width="10" fill="url(#linearGradient4751)"/>
  <path d="m8.524993,281.406128c0,0 -0.277362,0.183533 -0.8,0.400024c-0.369549,0.153076 -0.583521,-0.277405 -0.799999,-0.800018c-0.153072,-0.369537 -0.4,-0.799988 -0.4,-1.599976c0,-0.800018 0,-1.200012 0,-2c0,-0.800018 0,-1.600006 0,-2c0,-0.400024 0,-0.800018 0,-1.200012c0,-0.799988 0.4,-1.600006 0.799999,-2.399994l0.4,0l0.4,0" id="svg_5" stroke-width="10" fill="none"/>
  <text stroke="null" transform="rotate(-90.10722351074219 13.561184883117699,276.49932861328125) matrix(1.310844571474945,0,0,0.9000781774520874,3.41460818163079,25.800126837566495) " xml:space="preserve" text-anchor="start" font-family="'Courier New', Courier, monospace" font-size="18.140507px" id="svg_7" y="283.321052" x="2.143853" stroke-width="1px" fill="#ffffff">M</text>
 </g>
</svg>
